# xmcd CD database file
# Copyright (C) 1993-1998 Ti Kan
# 
# Track frame offsets:
#     182
#     11437
#     22385
#     35252
#     48027
#     60147
#     72627
#     87587
#     102130
#     115280
#     127602
#     140637
#     153287
#     165780
#     178025
#     188307
#     200710
#     213310
#     226677
#     238792
# 
# Disc length: 3381 seconds
# 
# Revision: 1
# Processed by: cddbd v1.4b41PL1 Copyright (c) Steve Scherf et al.
# Submitted via: DiscPlay 4.0.4
# 
DISCID=fc0d3314
DTITLE=Champion Jack Dupree - Champion Jack Dupree: The Joe Davis Sessions: 
DTITLE=1945-1946
DYEAR=1900
DGENRE=
TTITLE0=She Makes Good Jelly
TTITLE1=Rum Cola Blues
TTITLE2=Johnson Street Boogie Woogie
TTITLE3=I'm Going Down With You
TTITLE4=F.D.R. Blues
TTITLE5=God Bless Our New President
TTITLE6=County Jail Special
TTITLE7=Fisherman's Blues
TTITLE8=Lover's Lane
TTITLE9=Black Wolf
TTITLE10=Walkin' By Myself
TTITLE11=Outside Man
TTITLE12=Forget It Mama
TTITLE13=You've Been Drunk
TTITLE14=Santa Claus Blues
TTITLE15=Gin Mill Sal
TTITLE16=Love Strike Blues
TTITLE17=Wet Deck Mama
TTITLE18=Big Legged Woman
TTITLE19=I'm A Doctor For Women
EXTD=
EXTT0=
EXTT1=
EXTT2=
EXTT3=
EXTT4=
EXTT5=
EXTT6=
EXTT7=
EXTT8=
EXTT9=
EXTT10=
EXTT11=
EXTT12=
EXTT13=
EXTT14=
EXTT15=
EXTT16=
EXTT17=
EXTT18=
EXTT19=
PLAYORDER=
